# 3ds Max Wavefront OBJ Exporter v0.99 - (c)2007 guruware
# File Created: 31.05.2021 16:19:40

mtllib Limo.mtl

#
# object Sphere01
#

v  0.0000 0.0000 9.0019
v  -0.0000 1.5854 7.3775
v  -0.5180 1.5078 7.3775
v  -0.9853 1.2826 7.3775
v  -1.3561 0.9319 7.3775
v  -1.5942 0.4899 7.3775
v  -1.6763 -0.0000 7.3775
v  -1.5942 -0.4899 7.3775
v  -1.3561 -0.9319 7.3775
v  -0.9853 -1.2826 7.3775
v  -0.5180 -1.5078 7.3775
v  0.0000 -1.5854 7.3775
v  0.5180 -1.5078 7.3775
v  0.9853 -1.2826 7.3775
v  1.3561 -0.9319 7.3775
v  1.5942 -0.4899 7.3775
v  1.6763 0.0000 7.3775
v  1.5942 0.4899 7.3775
v  1.3561 0.9319 7.3775
v  0.9853 1.2826 7.3775
v  0.5180 1.5078 7.3775
v  -0.0000 2.7643 6.3830
v  -0.9032 2.6290 6.3830
v  -1.7179 2.2364 6.3830
v  -2.3645 1.6248 6.3830
v  -2.7797 0.8542 6.3830
v  -2.9227 -0.0000 6.3830
v  -2.7797 -0.8542 6.3830
v  -2.3645 -1.6248 6.3830
v  -1.7179 -2.2364 6.3830
v  -0.9032 -2.6290 6.3830
v  0.0000 -2.7643 6.3830
v  0.9032 -2.6290 6.3830
v  1.7179 -2.2364 6.3830
v  2.3645 -1.6248 6.3830
v  2.7797 -0.8542 6.3830
v  2.9227 0.0000 6.3830
v  2.7797 0.8542 6.3830
v  2.3645 1.6248 6.3830
v  1.7179 2.2364 6.3830
v  0.9032 2.6290 6.3830
v  -0.0000 6.0314 4.2835
v  -1.9436 5.7362 4.2835
v  -3.6969 4.8795 4.2835
v  -5.0883 3.5452 4.2835
v  -5.9817 1.8638 4.2835
v  -6.2895 -0.0000 4.2835
v  -5.9817 -1.8638 4.2835
v  -5.0883 -3.5452 4.2835
v  -3.6969 -4.8795 4.2835
v  -1.9436 -5.7362 4.2835
v  0.0000 -6.0314 4.2835
v  1.9436 -5.7362 4.2835
v  3.6969 -4.8795 4.2835
v  5.0883 -3.5452 4.2835
v  5.9817 -1.8638 4.2835
v  6.2895 0.0000 4.2835
v  5.9817 1.8638 4.2835
v  5.0883 3.5452 4.2835
v  3.6969 4.8795 4.2835
v  1.9435 5.7362 4.2835
v  -0.0000 7.1945 2.2763
v  -2.1449 6.8424 2.2763
v  -4.0799 5.8205 2.2763
v  -5.6155 4.2288 2.2763
v  -6.6014 2.2232 2.2763
v  -6.9412 -0.0000 2.2763
v  -6.6014 -2.2232 2.2763
v  -5.6155 -4.2288 2.2763
v  -4.0799 -5.8205 2.2763
v  -2.1449 -6.8424 2.2763
v  0.0000 -7.1945 2.2763
v  2.1449 -6.8424 2.2763
v  4.0799 -5.8205 2.2763
v  5.6155 -4.2288 2.2763
v  6.6014 -2.2232 2.2763
v  6.9412 0.0000 2.2763
v  6.6014 2.2232 2.2763
v  5.6155 4.2288 2.2763
v  4.0799 5.8205 2.2763
v  2.1449 6.8424 2.2763
v  -0.0000 7.4091 0.5939
v  -2.3550 7.0464 0.5939
v  -4.4795 5.9941 0.5939
v  -6.1655 4.3549 0.5939
v  -7.2480 2.2895 0.5939
v  -7.6210 -0.0000 0.5939
v  -7.2480 -2.2895 0.5939
v  -6.1655 -4.3549 0.5939
v  -4.4795 -5.9941 0.5939
v  -2.3550 -7.0464 0.5939
v  0.0000 -7.4091 0.5939
v  2.3550 -7.0464 0.5939
v  4.4795 -5.9940 0.5939
v  6.1655 -4.3549 0.5939
v  7.2480 -2.2895 0.5939
v  7.6210 0.0000 0.5939
v  7.2480 2.2895 0.5939
v  6.1655 4.3549 0.5939
v  4.4795 5.9941 0.5939
v  2.3550 7.0464 0.5939
v  -0.0000 7.2266 -0.9271
v  -2.3611 6.8729 -0.9271
v  -4.4911 5.8464 -0.9271
v  -6.1814 4.2477 -0.9271
v  -7.2667 2.2331 -0.9271
v  -7.6406 -0.0000 -0.9271
v  -7.2667 -2.2331 -0.9271
v  -6.1814 -4.2477 -0.9271
v  -4.4910 -5.8464 -0.9271
v  -2.3611 -6.8729 -0.9271
v  0.0000 -7.2266 -0.9271
v  2.3611 -6.8729 -0.9271
v  4.4911 -5.8464 -0.9271
v  6.1814 -4.2477 -0.9271
v  7.2667 -2.2331 -0.9271
v  7.6406 0.0000 -0.9271
v  7.2667 2.2331 -0.9271
v  6.1814 4.2477 -0.9271
v  4.4910 5.8464 -0.9271
v  2.3611 6.8729 -0.9271
v  -0.0000 6.2075 -2.6710
v  -1.8416 5.9037 -2.6710
v  -3.5029 5.0220 -2.6710
v  -4.8213 3.6487 -2.6710
v  -5.6678 1.9182 -2.6710
v  -5.9595 -0.0000 -2.6710
v  -5.6678 -1.9182 -2.6710
v  -4.8213 -3.6487 -2.6710
v  -3.5029 -5.0220 -2.6710
v  -1.8416 -5.9037 -2.6710
v  0.0000 -6.2075 -2.6710
v  1.8416 -5.9037 -2.6710
v  3.5029 -5.0220 -2.6710
v  4.8213 -3.6487 -2.6710
v  5.6678 -1.9182 -2.6710
v  5.9595 0.0000 -2.6710
v  5.6678 1.9182 -2.6710
v  4.8213 3.6487 -2.6710
v  3.5029 5.0220 -2.6710
v  1.8416 5.9037 -2.6710
v  -0.0000 4.0952 -3.8782
v  -1.3380 3.8947 -3.8782
v  -2.5450 3.3131 -3.8782
v  -3.5029 2.4071 -3.8782
v  -4.1179 1.2655 -3.8782
v  -4.3298 -0.0000 -3.8782
v  -4.1179 -1.2655 -3.8782
v  -3.5029 -2.4071 -3.8782
v  -2.5450 -3.3131 -3.8782
v  -1.3380 -3.8947 -3.8782
v  0.0000 -4.0952 -3.8782
v  1.3380 -3.8947 -3.8782
v  2.5450 -3.3131 -3.8782
v  3.5029 -2.4071 -3.8782
v  4.1179 -1.2655 -3.8782
v  4.3298 0.0000 -3.8782
v  4.1179 1.2655 -3.8782
v  3.5029 2.4071 -3.8782
v  2.5450 3.3131 -3.8782
v  1.3380 3.8947 -3.8782
v  -0.0000 2.3590 -4.9244
v  -0.7708 2.2436 -4.9244
v  -1.4661 1.9085 -4.9244
v  -2.0179 1.3866 -4.9244
v  -2.3721 0.7290 -4.9244
v  -2.4942 -0.0000 -4.9244
v  -2.3721 -0.7290 -4.9244
v  -2.0179 -1.3866 -4.9244
v  -1.4661 -1.9085 -4.9244
v  -0.7708 -2.2436 -4.9244
v  0.0000 -2.3590 -4.9244
v  0.7708 -2.2436 -4.9244
v  1.4661 -1.9085 -4.9244
v  2.0179 -1.3866 -4.9244
v  2.3721 -0.7290 -4.9244
v  2.4942 0.0000 -4.9244
v  2.3721 0.7290 -4.9244
v  2.0179 1.3866 -4.9244
v  1.4661 1.9085 -4.9244
v  0.7707 2.2436 -4.9244
v  0.0000 -0.0000 -5.2177
# 182 vertices

vn -0.0000 -0.0000 1.0000
vn -0.0000 0.6786 0.7345
vn -0.1990 0.6468 0.7363
vn -0.3807 0.5533 0.7409
vn -0.5278 0.4049 0.7467
vn -0.6241 0.2141 0.7514
vn -0.6577 -0.0000 0.7533
vn -0.6241 -0.2141 0.7514
vn -0.5278 -0.4049 0.7467
vn -0.3807 -0.5533 0.7409
vn -0.1990 -0.6468 0.7363
vn 0.0000 -0.6786 0.7345
vn 0.1990 -0.6468 0.7363
vn 0.3807 -0.5533 0.7409
vn 0.5278 -0.4049 0.7467
vn 0.6241 -0.2141 0.7514
vn 0.6577 0.0000 0.7533
vn 0.6241 0.2141 0.7514
vn 0.5278 0.4049 0.7467
vn 0.3807 0.5533 0.7409
vn 0.1990 0.6468 0.7363
vn -0.0000 0.5900 0.8074
vn -0.1733 0.5624 0.8085
vn -0.3316 0.4813 0.8114
vn -0.4598 0.3523 0.8151
vn -0.5439 0.1864 0.8182
vn -0.5733 -0.0000 0.8194
vn -0.5439 -0.1864 0.8182
vn -0.4598 -0.3523 0.8151
vn -0.3316 -0.4813 0.8114
vn -0.1733 -0.5624 0.8085
vn 0.0000 -0.5900 0.8074
vn 0.1733 -0.5624 0.8085
vn 0.3316 -0.4813 0.8114
vn 0.4598 -0.3523 0.8151
vn 0.5439 -0.1864 0.8182
vn 0.5733 0.0000 0.8194
vn 0.5439 0.1864 0.8182
vn 0.4598 0.3523 0.8151
vn 0.3316 0.4813 0.8114
vn 0.1733 0.5624 0.8085
vn -0.0000 0.7336 0.6796
vn -0.2236 0.7050 0.6730
vn -0.4375 0.6165 0.6546
vn -0.6235 0.4634 0.6298
vn -0.7535 0.2503 0.6079
vn -0.8006 -0.0000 0.5992
vn -0.7535 -0.2503 0.6079
vn -0.6235 -0.4634 0.6298
vn -0.4375 -0.6165 0.6546
vn -0.2236 -0.7050 0.6730
vn 0.0000 -0.7336 0.6796
vn 0.2236 -0.7050 0.6730
vn 0.4375 -0.6165 0.6546
vn 0.6235 -0.4634 0.6298
vn 0.7535 -0.2503 0.6079
vn 0.8006 0.0000 0.5992
vn 0.7535 0.2503 0.6079
vn 0.6235 0.4634 0.6298
vn 0.4375 0.6165 0.6546
vn 0.2236 0.7050 0.6730
vn -0.0000 0.9493 0.3142
vn -0.2953 0.9008 0.3184
vn -0.5585 0.7619 0.3280
vn -0.7641 0.5500 0.3371
vn -0.8946 0.2879 0.3418
vn -0.9393 -0.0000 0.3430
vn -0.8946 -0.2879 0.3418
vn -0.7641 -0.5500 0.3371
vn -0.5585 -0.7619 0.3280
vn -0.2953 -0.9008 0.3184
vn 0.0000 -0.9493 0.3142
vn 0.2953 -0.9008 0.3184
vn 0.5585 -0.7619 0.3280
vn 0.7641 -0.5500 0.3371
vn 0.8946 -0.2879 0.3418
vn 0.9393 0.0000 0.3430
vn 0.8946 0.2879 0.3418
vn 0.7641 0.5500 0.3371
vn 0.5585 0.7619 0.3280
vn 0.2953 0.9008 0.3184
vn -0.0000 1.0000 0.0037
vn -0.3034 0.9526 0.0224
vn -0.5785 0.8126 0.0711
vn -0.7962 0.5908 0.1300
vn -0.9342 0.3102 0.1763
vn -0.9811 0.0000 0.1936
vn -0.9342 -0.3102 0.1763
vn -0.7962 -0.5908 0.1300
vn -0.5785 -0.8126 0.0711
vn -0.3034 -0.9526 0.0224
vn 0.0000 -1.0000 0.0037
vn 0.3034 -0.9526 0.0224
vn 0.5785 -0.8126 0.0711
vn 0.7962 -0.5908 0.1300
vn 0.9342 -0.3102 0.1763
vn 0.9811 0.0000 0.1936
vn 0.9342 0.3102 0.1763
vn 0.7962 0.5908 0.1300
vn 0.5785 0.8126 0.0711
vn 0.3034 0.9526 0.0224
vn -0.0000 0.9498 -0.3128
vn -0.2846 0.9041 -0.3188
vn -0.5426 0.7714 -0.3324
vn -0.7505 0.5635 -0.3453
vn -0.8869 0.2979 -0.3529
vn -0.9348 -0.0000 -0.3552
vn -0.8869 -0.2979 -0.3529
vn -0.7505 -0.5635 -0.3453
vn -0.5426 -0.7714 -0.3324
vn -0.2846 -0.9041 -0.3188
vn 0.0000 -0.9498 -0.3128
vn 0.2846 -0.9041 -0.3188
vn 0.5426 -0.7714 -0.3324
vn 0.7505 -0.5635 -0.3453
vn 0.8869 -0.2979 -0.3529
vn 0.9348 0.0000 -0.3552
vn 0.8869 0.2979 -0.3529
vn 0.7505 0.5635 -0.3453
vn 0.5426 0.7714 -0.3324
vn 0.2846 0.9041 -0.3188
vn -0.0000 0.7167 -0.6973
vn -0.2213 0.6745 -0.7043
vn -0.4107 0.5591 -0.7202
vn -0.5503 0.3949 -0.7356
vn -0.6355 0.2038 -0.7447
vn -0.6643 -0.0000 -0.7475
vn -0.6355 -0.2038 -0.7447
vn -0.5503 -0.3949 -0.7356
vn -0.4107 -0.5591 -0.7202
vn -0.2213 -0.6745 -0.7043
vn 0.0000 -0.7167 -0.6973
vn 0.2213 -0.6745 -0.7043
vn 0.4107 -0.5591 -0.7202
vn 0.5503 -0.3949 -0.7356
vn 0.6355 -0.2038 -0.7447
vn 0.6643 0.0000 -0.7475
vn 0.6355 0.2038 -0.7447
vn 0.5503 0.3949 -0.7356
vn 0.4107 0.5591 -0.7202
vn 0.2213 0.6745 -0.7043
vn -0.0000 0.5054 -0.8629
vn -0.1516 0.4857 -0.8609
vn -0.2970 0.4251 -0.8550
vn -0.4250 0.3207 -0.8465
vn -0.5167 0.1742 -0.8383
vn -0.5506 -0.0000 -0.8348
vn -0.5167 -0.1742 -0.8383
vn -0.4250 -0.3207 -0.8465
vn -0.2970 -0.4251 -0.8550
vn -0.1516 -0.4857 -0.8609
vn 0.0000 -0.5054 -0.8629
vn 0.1516 -0.4857 -0.8609
vn 0.2970 -0.4251 -0.8550
vn 0.4250 -0.3207 -0.8465
vn 0.5167 -0.1742 -0.8383
vn 0.5506 0.0000 -0.8348
vn 0.5167 0.1742 -0.8383
vn 0.4250 0.3207 -0.8465
vn 0.2970 0.4251 -0.8550
vn 0.1516 0.4857 -0.8609
vn -0.0000 0.3442 -0.9389
vn -0.1003 0.3280 -0.9393
vn -0.1918 0.2805 -0.9405
vn -0.2658 0.2051 -0.9420
vn -0.3141 0.1084 -0.9432
vn -0.3310 -0.0000 -0.9436
vn -0.3141 -0.1084 -0.9432
vn -0.2658 -0.2051 -0.9420
vn -0.1918 -0.2805 -0.9405
vn -0.1003 -0.3280 -0.9393
vn 0.0000 -0.3442 -0.9389
vn 0.1003 -0.3280 -0.9393
vn 0.1918 -0.2805 -0.9405
vn 0.2658 -0.2051 -0.9420
vn 0.3141 -0.1084 -0.9432
vn 0.3310 0.0000 -0.9436
vn 0.3141 0.1084 -0.9432
vn 0.2658 0.2051 -0.9420
vn 0.1918 0.2805 -0.9405
vn 0.1003 0.3280 -0.9393
vn 0.0000 0.0000 -1.0000
# 182 vertex normals

vt 2.7079 0.5000 1.6773
vt 2.7079 0.6818 1.4440
vt 2.5244 0.6729 1.4440
vt 0.5000 1.6773 2.7079
vt 0.3271 1.4440 2.5244
vt 0.3529 1.4440 2.3588
vt 0.3931 1.4440 2.2274
vt 0.4438 1.4440 2.1430
vt 0.5000 1.4440 2.1139
vt 0.5562 1.4440 2.1430
vt 0.6069 1.4440 2.2274
vt 0.6471 1.4440 2.3588
vt 0.6729 1.4440 2.5244
vt 2.5244 0.3271 1.4440
vt 2.7079 0.3182 1.4440
vt 2.8915 0.3271 1.4440
vt 0.3271 1.4440 2.8915
vt 0.3529 1.4440 3.0570
vt 0.3931 1.4440 3.1884
vt 0.4438 1.4440 3.2728
vt 0.5000 1.4440 3.3019
vt 0.5562 1.4440 3.2728
vt 0.6069 1.4440 3.1884
vt 0.6471 1.4440 3.0570
vt 0.6729 1.4440 2.8915
vt 2.8915 0.6729 1.4440
vt 2.7079 0.8171 1.3011
vt 2.3879 0.8015 1.3011
vt 2.0992 0.7565 1.3011
vt 2.3588 0.6471 1.4440
vt 0.2435 1.3011 2.0992
vt 0.3136 1.3011 1.8701
vt 0.4020 1.3011 1.7230
vt 0.5000 1.3011 1.6723
vt 0.5980 1.3011 1.7230
vt 0.6864 1.3011 1.8701
vt 0.7565 1.3011 2.0992
vt 2.3588 0.3529 1.4440
vt 2.0992 0.2435 1.3011
vt 2.3879 0.1985 1.3011
vt 2.7079 0.1829 1.3011
vt 3.0279 0.1985 1.3011
vt 3.3167 0.2435 1.3011
vt 3.0570 0.3529 1.4440
vt 0.2435 1.3011 3.3167
vt 0.3136 1.3011 3.5458
vt 0.4020 1.3011 3.6929
vt 0.5000 1.3011 3.7436
vt 0.5980 1.3011 3.6929
vt 0.6864 1.3011 3.5458
vt 0.7565 1.3011 3.3166
vt 3.0570 0.6471 1.4440
vt 3.3166 0.7565 1.3011
vt 3.0279 0.8015 1.3011
vt 2.7079 1.1918 0.9995
vt 2.0192 1.1579 0.9995
vt 1.3979 1.0597 0.9995
vt -0.0597 0.9995 1.3979
vt 0.0934 0.9995 0.9049
vt 0.2862 0.9995 0.5883
vt 0.5000 0.9995 0.4793
vt 0.7138 0.9995 0.5883
vt 0.9066 0.9995 0.9049
vt 1.0597 0.9995 1.3980
vt 1.3980 -0.0597 0.9995
vt 2.0192 -0.1579 0.9995
vt 2.7079 -0.1918 0.9995
vt 3.3966 -0.1579 0.9995
vt 4.0179 -0.0597 0.9995
vt -0.0597 0.9995 4.0179
vt 0.0934 0.9995 4.5109
vt 0.2862 0.9995 4.8275
vt 0.5000 0.9995 4.9366
vt 0.7138 0.9995 4.8275
vt 0.9066 0.9995 4.5109
vt 1.0597 0.9995 4.0179
vt 4.0179 1.0597 0.9995
vt 3.3966 1.1579 0.9995
vt -1.7079 0.9995 1.1918
vt -1.7079 0.7112 1.3252
vt -0.9479 0.7112 1.2848
vt -1.0192 0.9995 1.1579
vt -0.1579 0.9995 2.0192
vt -0.2848 0.7112 1.9479
vt -0.1676 0.7112 1.2622
vt 0.0150 0.7112 0.7181
vt 0.2450 0.7112 0.3687
vt 0.5000 0.7112 0.2484
vt 0.7550 0.7112 0.3687
vt 0.9850 0.7112 0.7181
vt 1.1676 0.7112 1.2622
vt 1.2848 0.7112 1.9479
vt 1.1579 0.9995 2.0192
vt 2.0192 0.9995 -0.1579
vt 1.9479 0.7112 -0.2848
vt 2.7079 0.7112 -0.3252
vt 2.7079 0.9995 -0.1918
vt 3.4680 0.7112 -0.2848
vt 3.3966 0.9995 -0.1579
vt -0.1579 0.9995 3.3966
vt -0.2848 0.7112 3.4680
vt -0.1676 0.7112 4.1536
vt 0.0150 0.7112 4.6977
vt 0.2450 0.7112 5.0471
vt 0.5000 0.7112 5.1675
vt 0.7550 0.7112 5.0471
vt 0.9850 0.7112 4.6977
vt 1.1676 0.7112 4.1536
vt 1.2848 0.7112 3.4680
vt 1.1579 0.9995 3.3966
vt -2.3966 0.9995 1.1579
vt -2.4680 0.7112 1.2848
vt -1.7079 0.4695 1.3498
vt -0.8734 0.4695 1.3082
vt -0.3082 0.4695 1.8734
vt -0.1875 0.4695 1.1206
vt 0.0005 0.4695 0.5232
vt 0.2374 0.4695 0.1396
vt 0.5000 0.4695 0.0075
vt 0.7626 0.4695 0.1396
vt 0.9995 0.4695 0.5232
vt 1.1875 0.4695 1.1206
vt 1.3082 0.4695 1.8734
vt 1.8734 0.4695 -0.3082
vt 2.7079 0.4695 -0.3498
vt 3.5424 0.4695 -0.3082
vt -0.3082 0.4695 3.5424
vt -0.1875 0.4695 4.2952
vt 0.0005 0.4695 4.8926
vt 0.2374 0.4695 5.2762
vt 0.5000 0.4695 5.4084
vt 0.7626 0.4695 5.2762
vt 0.9995 0.4695 4.8926
vt 1.1875 0.4695 4.2952
vt 1.3082 0.4695 3.5424
vt -2.5424 0.4695 1.3082
vt -1.7079 0.2510 1.3289
vt -0.8713 0.2510 1.2883
vt -0.2883 0.2510 1.8713
vt -0.1706 0.2510 1.1165
vt 0.0128 0.2510 0.5176
vt 0.2439 0.2510 0.1330
vt 0.5000 0.2510 0.0005
vt 0.7561 0.2510 0.1330
vt 0.9872 0.2510 0.5176
vt 1.1706 0.2510 1.1165
vt 1.2883 0.2510 1.8713
vt 1.8713 0.2510 -0.2883
vt 2.7079 0.2510 -0.3289
vt 3.5446 0.2510 -0.2883
vt -0.2883 0.2510 3.5446
vt -0.1706 0.2510 4.2993
vt 0.0128 0.2510 4.8983
vt 0.2439 0.2510 5.2828
vt 0.5000 0.2510 5.4153
vt 0.7561 0.2510 5.2828
vt 0.9872 0.2510 4.8983
vt 1.1706 0.2510 4.2993
vt 1.2883 0.2510 3.5445
vt -2.5445 0.2510 1.2883
vt -1.7079 0.0005 1.2120
vt -1.0554 0.0005 1.1771
vt -0.1771 0.0005 2.0554
vt -0.0760 0.0005 1.4667
vt 0.0815 0.0005 0.9995
vt 0.2800 0.0005 0.6996
vt 0.5000 0.0005 0.5962
vt 0.7200 0.0005 0.6996
vt 0.9185 0.0005 0.9995
vt 1.0760 0.0005 1.4667
vt 1.1771 0.0005 2.0554
vt 2.0554 0.0005 -0.1771
vt 2.7079 0.0005 -0.2120
vt 3.3605 0.0005 -0.1771
vt -0.1771 0.0005 3.3605
vt -0.0760 0.0005 3.9491
vt 0.0815 0.0005 4.4163
vt 0.2800 0.0005 4.7163
vt 0.5000 0.0005 4.8196
vt 0.7200 0.0005 4.7163
vt 0.9185 0.0005 4.4163
vt 1.0760 0.0005 3.9491
vt 1.1771 0.0005 3.3605
vt -2.3605 0.0005 1.1771
vt -1.7079 1.2120 0.0005
vt -1.7079 0.9697 -0.1729
vt -1.2338 0.9467 -0.1729
vt -1.0554 1.1771 0.0005
vt -0.8061 0.8800 -0.1729
vt -0.4667 1.0760 0.0005
vt 0.1200 -0.1729 1.8061
vt 0.2239 -0.1729 1.4667
vt 0.3549 -0.1729 1.2488
vt 0.5000 -0.1729 1.1737
vt 0.6451 -0.1729 1.2488
vt 0.7761 -0.1729 1.4667
vt 0.8800 -0.1729 1.8061
vt -0.4667 -0.0760 0.0005
vt -0.8061 0.1200 -0.1729
vt -1.2338 0.0533 -0.1729
vt -1.0554 -0.1771 0.0005
vt -1.7079 0.0303 -0.1729
vt -1.7079 -0.2120 0.0005
vt -2.1820 0.0533 -0.1729
vt -2.3605 -0.1771 0.0005
vt -2.6097 0.1200 -0.1729
vt -2.9491 -0.0760 0.0005
vt 0.1200 -0.1729 3.6097
vt 0.2239 -0.1729 3.9491
vt 0.3549 -0.1729 4.1671
vt 0.5000 -0.1729 4.2422
vt 0.6451 -0.1729 4.1671
vt 0.7761 -0.1729 3.9491
vt 0.8800 -0.1729 3.6097
vt -2.9491 1.0760 0.0005
vt -2.6097 0.8800 -0.1729
vt -2.1820 0.9467 -0.1729
vt -2.3605 1.1771 0.0005
vt -1.7079 0.7706 -0.3232
vt -1.4348 0.7573 -0.3232
vt -1.1884 0.7189 -0.3232
vt 0.2811 -0.3232 2.1884
vt 0.3410 -0.3232 1.9929
vt 0.4164 -0.3232 1.8674
vt 0.5000 -0.3232 1.8241
vt 0.5836 -0.3232 1.8674
vt 0.6590 -0.3232 1.9929
vt 0.7189 -0.3232 2.1884
vt -1.1884 0.2811 -0.3232
vt -1.4348 0.2427 -0.3232
vt -1.7079 0.2294 -0.3232
vt -1.9810 0.2427 -0.3232
vt -2.2274 0.2811 -0.3232
vt 0.2811 -0.3232 3.2274
vt 0.3410 -0.3232 3.4229
vt 0.4164 -0.3232 3.5485
vt 0.5000 -0.3232 3.5917
vt 0.5836 -0.3232 3.5485
vt 0.6590 -0.3232 3.4229
vt 0.7189 -0.3232 3.2274
vt -2.2274 0.7189 -0.3232
vt -1.9810 0.7573 -0.3232
vt -1.7079 0.5000 -0.3653
vt -0.9929 0.6590 -0.3232
vt -0.8674 0.5836 -0.3232
vt -0.8241 0.5000 -0.3232
vt -0.8674 0.4164 -0.3232
vt -0.9929 0.3410 -0.3232
vt -2.4229 0.3410 -0.3232
vt -2.5485 0.4164 -0.3232
vt -2.5917 0.5000 -0.3232
vt -2.5485 0.5836 -0.3232
vt -2.4229 0.6590 -0.3232
# 253 texture coords

o Sphere01
g Sphere01
usemtl Material__25
s 1
f 1/1/1 2/2/2 3/3/3 
f 1/4/1 3/5/3 4/6/4 
f 1/4/1 4/6/4 5/7/5 
f 1/4/1 5/7/5 6/8/6 
f 1/4/1 6/8/6 7/9/7 
f 1/4/1 7/9/7 8/10/8 
f 1/4/1 8/10/8 9/11/9 
f 1/4/1 9/11/9 10/12/10 
f 1/4/1 10/12/10 11/13/11 
f 1/1/1 11/14/11 12/15/12 
f 1/1/1 12/15/12 13/16/13 
f 1/4/1 13/17/13 14/18/14 
f 1/4/1 14/18/14 15/19/15 
f 1/4/1 15/19/15 16/20/16 
f 1/4/1 16/20/16 17/21/17 
f 1/4/1 17/21/17 18/22/18 
f 1/4/1 18/22/18 19/23/19 
f 1/4/1 19/23/19 20/24/20 
f 1/4/1 20/24/20 21/25/21 
f 1/1/1 21/26/21 2/2/2 
f 2/2/2 22/27/22 23/28/23 3/3/3 
f 3/3/3 23/28/23 24/29/24 4/30/4 
f 4/6/4 24/31/24 25/32/25 5/7/5 
f 5/7/5 25/32/25 26/33/26 6/8/6 
f 6/8/6 26/33/26 27/34/27 7/9/7 
f 7/9/7 27/34/27 28/35/28 8/10/8 
f 8/10/8 28/35/28 29/36/29 9/11/9 
f 9/11/9 29/36/29 30/37/30 10/12/10 
f 10/38/10 30/39/30 31/40/31 11/14/11 
f 11/14/11 31/40/31 32/41/32 12/15/12 
f 12/15/12 32/41/32 33/42/33 13/16/13 
f 13/16/13 33/42/33 34/43/34 14/44/14 
f 14/18/14 34/45/34 35/46/35 15/19/15 
f 15/19/15 35/46/35 36/47/36 16/20/16 
f 16/20/16 36/47/36 37/48/37 17/21/17 
f 17/21/17 37/48/37 38/49/38 18/22/18 
f 18/22/18 38/49/38 39/50/39 19/23/19 
f 19/23/19 39/50/39 40/51/40 20/24/20 
f 20/52/20 40/53/40 41/54/41 21/26/21 
f 21/26/21 41/54/41 22/27/22 2/2/2 
f 22/27/22 42/55/42 43/56/43 23/28/23 
f 23/28/23 43/56/43 44/57/44 24/29/24 
f 24/31/24 44/58/44 45/59/45 25/32/25 
f 25/32/25 45/59/45 46/60/46 26/33/26 
f 26/33/26 46/60/46 47/61/47 27/34/27 
f 27/34/27 47/61/47 48/62/48 28/35/28 
f 28/35/28 48/62/48 49/63/49 29/36/29 
f 29/36/29 49/63/49 50/64/50 30/37/30 
f 30/39/30 50/65/50 51/66/51 31/40/31 
f 31/40/31 51/66/51 52/67/52 32/41/32 
f 32/41/32 52/67/52 53/68/53 33/42/33 
f 33/42/33 53/68/53 54/69/54 34/43/34 
f 34/45/34 54/70/54 55/71/55 35/46/35 
f 35/46/35 55/71/55 56/72/56 36/47/36 
f 36/47/36 56/72/56 57/73/57 37/48/37 
f 37/48/37 57/73/57 58/74/58 38/49/38 
f 38/49/38 58/74/58 59/75/59 39/50/39 
f 39/50/39 59/75/59 60/76/60 40/51/40 
f 40/53/40 60/77/60 61/78/61 41/54/41 
f 41/54/41 61/78/61 42/55/42 22/27/22 
f 42/79/42 62/80/62 63/81/63 43/82/43 
f 43/83/43 63/84/63 64/85/64 44/58/44 
f 44/58/44 64/85/64 65/86/65 45/59/45 
usemtl Material__26
f 45/59/45 65/86/65 66/87/66 46/60/46 
f 46/60/46 66/87/66 67/88/67 47/61/47 
f 47/61/47 67/88/67 68/89/68 48/62/48 
f 48/62/48 68/89/68 69/90/69 49/63/49 
usemtl Material__25
f 49/63/49 69/90/69 70/91/70 50/64/50 
f 50/64/50 70/91/70 71/92/71 51/93/51 
f 51/94/51 71/95/71 72/96/72 52/97/52 
f 52/97/52 72/96/72 73/98/73 53/99/53 
f 53/100/53 73/101/73 74/102/74 54/70/54 
f 54/70/54 74/102/74 75/103/75 55/71/55 
f 55/71/55 75/103/75 76/104/76 56/72/56 
f 56/72/56 76/104/76 77/105/77 57/73/57 
f 57/73/57 77/105/77 78/106/78 58/74/58 
f 58/74/58 78/106/78 79/107/79 59/75/59 
f 59/75/59 79/107/79 80/108/80 60/76/60 
f 60/76/60 80/108/80 81/109/81 61/110/61 
f 61/111/61 81/112/81 62/80/62 42/79/42 
f 62/80/62 82/113/82 83/114/83 63/81/63 
f 63/84/63 83/115/83 84/116/84 64/85/64 
f 64/85/64 84/116/84 85/117/85 65/86/65 
usemtl Material__26
f 65/86/65 85/117/85 86/118/86 66/87/66 
f 66/87/66 86/118/86 87/119/87 67/88/67 
f 67/88/67 87/119/87 88/120/88 68/89/68 
f 68/89/68 88/120/88 89/121/89 69/90/69 
usemtl Material__25
f 69/90/69 89/121/89 90/122/90 70/91/70 
f 70/91/70 90/122/90 91/123/91 71/92/71 
f 71/95/71 91/124/91 92/125/92 72/96/72 
f 72/96/72 92/125/92 93/126/93 73/98/73 
f 73/101/73 93/127/93 94/128/94 74/102/74 
f 74/102/74 94/128/94 95/129/95 75/103/75 
f 75/103/75 95/129/95 96/130/96 76/104/76 
f 76/104/76 96/130/96 97/131/97 77/105/77 
f 77/105/77 97/131/97 98/132/98 78/106/78 
f 78/106/78 98/132/98 99/133/99 79/107/79 
f 79/107/79 99/133/99 100/134/100 80/108/80 
f 80/108/80 100/134/100 101/135/101 81/109/81 
f 81/112/81 101/136/101 82/113/82 62/80/62 
f 82/113/82 102/137/102 103/138/103 83/114/83 
f 83/115/83 103/139/103 104/140/104 84/116/84 
f 84/116/84 104/140/104 105/141/105 85/117/85 
usemtl Material__26
f 85/117/85 105/141/105 106/142/106 86/118/86 
f 86/118/86 106/142/106 107/143/107 87/119/87 
f 87/119/87 107/143/107 108/144/108 88/120/88 
f 88/120/88 108/144/108 109/145/109 89/121/89 
usemtl Material__25
f 89/121/89 109/145/109 110/146/110 90/122/90 
f 90/122/90 110/146/110 111/147/111 91/123/91 
f 91/124/91 111/148/111 112/149/112 92/125/92 
f 92/125/92 112/149/112 113/150/113 93/126/93 
f 93/127/93 113/151/113 114/152/114 94/128/94 
f 94/128/94 114/152/114 115/153/115 95/129/95 
f 95/129/95 115/153/115 116/154/116 96/130/96 
f 96/130/96 116/154/116 117/155/117 97/131/97 
f 97/131/97 117/155/117 118/156/118 98/132/98 
f 98/132/98 118/156/118 119/157/119 99/133/99 
f 99/133/99 119/157/119 120/158/120 100/134/100 
f 100/134/100 120/158/120 121/159/121 101/135/101 
f 101/136/101 121/160/121 102/137/102 82/113/82 
f 102/137/102 122/161/122 123/162/123 103/138/103 
f 103/139/103 123/163/123 124/164/124 104/140/104 
f 104/140/104 124/164/124 125/165/125 105/141/105 
usemtl Material__26
f 105/141/105 125/165/125 126/166/126 106/142/106 
f 106/142/106 126/166/126 127/167/127 107/143/107 
f 107/143/107 127/167/127 128/168/128 108/144/108 
f 108/144/108 128/168/128 129/169/129 109/145/109 
usemtl Material__25
f 109/145/109 129/169/129 130/170/130 110/146/110 
f 110/146/110 130/170/130 131/171/131 111/147/111 
f 111/148/111 131/172/131 132/173/132 112/149/112 
f 112/149/112 132/173/132 133/174/133 113/150/113 
f 113/151/113 133/175/133 134/176/134 114/152/114 
f 114/152/114 134/176/134 135/177/135 115/153/115 
f 115/153/115 135/177/135 136/178/136 116/154/116 
f 116/154/116 136/178/136 137/179/137 117/155/117 
f 117/155/117 137/179/137 138/180/138 118/156/118 
f 118/156/118 138/180/138 139/181/139 119/157/119 
f 119/157/119 139/181/139 140/182/140 120/158/120 
f 120/158/120 140/182/140 141/183/141 121/159/121 
f 121/160/121 141/184/141 122/161/122 102/137/102 
f 122/185/122 142/186/142 143/187/143 123/188/123 
f 123/188/123 143/187/143 144/189/144 124/190/124 
f 124/164/124 144/191/144 145/192/145 125/165/125 
f 125/165/125 145/192/145 146/193/146 126/166/126 
f 126/166/126 146/193/146 147/194/147 127/167/127 
f 127/167/127 147/194/147 148/195/148 128/168/128 
f 128/168/128 148/195/148 149/196/149 129/169/129 
f 129/169/129 149/196/149 150/197/150 130/170/130 
f 130/198/130 150/199/150 151/200/151 131/201/131 
f 131/201/131 151/200/151 152/202/152 132/203/132 
f 132/203/132 152/202/152 153/204/153 133/205/133 
f 133/205/133 153/204/153 154/206/154 134/207/134 
f 134/176/134 154/208/154 155/209/155 135/177/135 
f 135/177/135 155/209/155 156/210/156 136/178/136 
f 136/178/136 156/210/156 157/211/157 137/179/137 
f 137/179/137 157/211/157 158/212/158 138/180/138 
f 138/180/138 158/212/158 159/213/159 139/181/139 
f 139/181/139 159/213/159 160/214/160 140/182/140 
f 140/215/140 160/216/160 161/217/161 141/218/141 
f 141/218/141 161/217/161 142/186/142 122/185/122 
f 142/186/142 162/219/162 163/220/163 143/187/143 
f 143/187/143 163/220/163 164/221/164 144/189/144 
f 144/191/144 164/222/164 165/223/165 145/192/145 
f 145/192/145 165/223/165 166/224/166 146/193/146 
f 146/193/146 166/224/166 167/225/167 147/194/147 
f 147/194/147 167/225/167 168/226/168 148/195/148 
f 148/195/148 168/226/168 169/227/169 149/196/149 
f 149/196/149 169/227/169 170/228/170 150/197/150 
f 150/199/150 170/229/170 171/230/171 151/200/151 
f 151/200/151 171/230/171 172/231/172 152/202/152 
f 152/202/152 172/231/172 173/232/173 153/204/153 
f 153/204/153 173/232/173 174/233/174 154/206/154 
f 154/208/154 174/234/174 175/235/175 155/209/155 
f 155/209/155 175/235/175 176/236/176 156/210/156 
f 156/210/156 176/236/176 177/237/177 157/211/157 
f 157/211/157 177/237/177 178/238/178 158/212/158 
f 158/212/158 178/238/178 179/239/179 159/213/159 
f 159/213/159 179/239/179 180/240/180 160/214/160 
f 160/216/160 180/241/180 181/242/181 161/217/161 
f 161/217/161 181/242/181 162/219/162 142/186/142 
f 182/243/182 163/220/163 162/219/162 
f 182/243/182 164/221/164 163/220/163 
f 182/243/182 165/244/165 164/221/164 
f 182/243/182 166/245/166 165/244/165 
f 182/243/182 167/246/167 166/245/166 
f 182/243/182 168/247/168 167/246/167 
f 182/243/182 169/248/169 168/247/168 
f 182/243/182 170/229/170 169/248/169 
f 182/243/182 171/230/171 170/229/170 
f 182/243/182 172/231/172 171/230/171 
f 182/243/182 173/232/173 172/231/172 
f 182/243/182 174/233/174 173/232/173 
f 182/243/182 175/249/175 174/233/174 
f 182/243/182 176/250/176 175/249/175 
f 182/243/182 177/251/177 176/250/176 
f 182/243/182 178/252/178 177/251/177 
f 182/243/182 179/253/179 178/252/178 
f 182/243/182 180/241/180 179/253/179 
f 182/243/182 181/242/181 180/241/180 
f 182/243/182 162/219/162 181/242/181 
# 160 polygons - 40 triangles

